<?xml version="1.0" encoding="utf-8"?>
<!-- Generator: Adobe Illustrator 14.0.0, SVG Export Plug-In . SVG Version: 6.00 Build 43363)  -->
<!DOCTYPE svg PUBLIC "-//W3C//DTD SVG 1.1//EN" "http://www.w3.org/Graphics/SVG/1.1/DTD/svg11.dtd">
<svg version="1.1" xmlns="http://www.w3.org/2000/svg" xmlns:xlink="http://www.w3.org/1999/xlink" x="0px" y="0px" width="120px"
	 height="95px" viewBox="16 -9 120 95" enable-background="new 16 -9 120 95" xml:space="preserve">
<g id="Layer_2">
</g>
<g id="Layer_1">
</g>
<g id="Layer_3">
	<rect x="16" y="-7.5" fill="#7FFFD4" width="118" height="91.5"/>
	<rect x="16" y="83" width="120" height="3"/>
	<rect x="16" y="-9" width="120" height="3"/>
	<rect x="16" y="-9" width="3" height="95"/>
	<rect x="133" y="-9" width="3" height="95"/>
	<path fill="#111111" d="M39.262,48.34c0-0.086,0-0.301,0-0.645s0-0.572,0-0.688c-0.487-1.719-0.552-3.408-0.193-5.07
		c0.358-1.661,1.002-3.158,1.934-4.49c0.931-1.332,2.12-2.449,3.566-3.352c1.446-0.902,3.029-1.454,4.748-1.654h0.773
		c0.63,0,1.153,0.136,1.568,0.408c0.415,0.272,0.745,0.623,0.988,1.053c0.243,0.43,0.415,0.917,0.516,1.461
		c0.1,0.544,0.15,1.089,0.15,1.633c0,0.745-0.079,1.468-0.236,2.17c-0.158,0.702-0.33,1.411-0.516,2.127
		c-0.187,0.717-0.358,1.426-0.516,2.127c-0.158,0.702-0.236,1.439-0.236,2.213v0.258c0.028,0.058,0.064,0.223,0.107,0.494
		c0.043,0.272,0.079,0.438,0.107,0.494c0.057,0,0.2,0.008,0.43,0.021c0.229,0.015,0.372,0.021,0.43,0.021
		c0.286,0,0.565-0.007,0.838-0.021c0.272-0.014,0.551-0.078,0.838-0.193l8.164-3.781c0.028,0,0.079-0.007,0.15-0.021
		c0.071-0.014,0.122-0.021,0.15-0.021c0.286,0,0.522,0.086,0.709,0.258c0.186,0.172,0.279,0.401,0.279,0.688
		c0,0.144-0.007,0.279-0.021,0.408c-0.015,0.129-0.093,0.251-0.236,0.365c-0.201,0.144-0.566,0.344-1.096,0.602
		c-0.53,0.258-1.096,0.545-1.697,0.859c-0.602,0.315-1.167,0.616-1.697,0.902c-0.53,0.287-0.91,0.473-1.139,0.559
		c-0.401,0.229-0.845,0.438-1.332,0.623c-0.487,0.187-0.988,0.365-1.504,0.537s-1.024,0.309-1.525,0.408
		c-0.501,0.101-0.953,0.15-1.354,0.15c-0.63,0-1.146-0.107-1.547-0.322c-0.401-0.215-0.702-0.501-0.902-0.859
		c-0.201-0.357-0.337-0.787-0.408-1.289c-0.072-0.501-0.079-1.023-0.021-1.568c-0.573,0.459-1.189,0.945-1.848,1.461
		c-0.659,0.516-1.347,0.988-2.062,1.418c-0.716,0.43-1.447,0.803-2.191,1.117c-0.745,0.315-1.504,0.473-2.277,0.473
		c-0.43,0-0.816-0.107-1.16-0.322S39.405,48.799,39.262,48.34z M41.582,47.438c0.659,0,1.389-0.193,2.191-0.58
		c0.802-0.387,1.59-0.866,2.363-1.439c0.773-0.572,1.475-1.182,2.105-1.826c0.63-0.645,1.117-1.225,1.461-1.74
		c0.028-0.859,0.15-1.683,0.365-2.471c0.215-0.788,0.322-1.597,0.322-2.428c0-0.057-0.007-0.143-0.021-0.258
		c-0.015-0.114-0.021-0.2-0.021-0.258c-0.373-0.315-0.688-0.501-0.945-0.559c-0.258-0.057-0.602-0.086-1.031-0.086
		c-0.058,0-0.179,0-0.365,0c-0.187,0-0.308,0.015-0.365,0.043c-0.172,0.144-0.458,0.408-0.859,0.795
		c-0.401,0.387-0.824,0.81-1.268,1.268c-0.444,0.458-0.859,0.888-1.246,1.289c-0.387,0.401-0.652,0.674-0.795,0.816
		c-0.029,0-0.086,0.051-0.172,0.15c-0.086,0.101-0.179,0.223-0.279,0.365c-0.101,0.144-0.187,0.279-0.258,0.408
		c-0.072,0.129-0.122,0.236-0.15,0.322l-1.031,5.027V47.438z"/>
	<path fill="#111111" d="M66.074,43.742c-0.029,0-0.064,0.036-0.107,0.107c-0.043,0.072-0.093,0.122-0.15,0.15
		C65.473,44.602,65.2,45.189,65,45.762c-0.201,0.573-0.401,1.232-0.602,1.977c-0.201,0.287-0.408,0.466-0.623,0.537
		c-0.215,0.072-0.466,0.107-0.752,0.107c-0.659,0-0.988-0.286-0.988-0.859c0.315-1.26,0.587-2.284,0.816-3.072
		c0.229-0.787,0.43-1.461,0.602-2.02s0.322-1.053,0.451-1.482s0.265-0.866,0.408-1.311c0.143-0.443,0.293-0.967,0.451-1.568
		c0.157-0.602,0.344-1.354,0.559-2.256s0.465-2.012,0.752-3.33c0.286-1.317,0.63-2.936,1.031-4.855l1.461-3.609
		c0.114-0.258,0.25-0.422,0.408-0.494c0.157-0.071,0.336-0.107,0.537-0.107c0.258,0,0.501,0.079,0.73,0.236
		c0.229,0.158,0.372,0.38,0.43,0.666c0,0.058,0,0.172,0,0.344s0.007,0.351,0.021,0.537c0.014,0.187,0.021,0.358,0.021,0.516
		c0,0.158,0,0.279,0,0.365c0,1.519-0.122,2.822-0.365,3.91c-0.244,1.089-0.573,2.105-0.988,3.051
		c-0.416,0.945-0.874,1.891-1.375,2.836c-0.501,0.945-0.996,2.034-1.482,3.266c0.773-0.888,1.661-1.647,2.664-2.277
		c1.002-0.63,2.105-0.945,3.309-0.945c0.114,0,0.336,0.015,0.666,0.043c0.329,0.029,0.551,0.043,0.666,0.043
		c0.602,0.172,1.124,0.501,1.568,0.988c0.444,0.487,0.795,1.039,1.053,1.654c0.258,0.616,0.443,1.261,0.559,1.934
		c0.114,0.674,0.172,1.282,0.172,1.826c0,0.573-0.058,1.182-0.172,1.826c-0.115,0.645-0.258,1.254-0.43,1.826h0.43l6.23-1.633
		c0.572-0.172,1.152-0.473,1.74-0.902c0.587-0.43,1.066-0.83,1.439-1.203h0.086c0.028,0,0.05-0.007,0.064-0.021
		c0.014-0.014,0.035-0.021,0.064-0.021c0.258,0,0.465,0.079,0.623,0.236c0.157,0.158,0.236,0.365,0.236,0.623
		c0,0.516-0.208,0.988-0.623,1.418c-0.416,0.43-0.91,0.795-1.482,1.096c-0.573,0.301-1.16,0.559-1.762,0.773
		s-1.074,0.365-1.418,0.451c-0.287,0.086-0.781,0.223-1.482,0.408c-0.702,0.187-1.454,0.38-2.256,0.58
		c-0.803,0.201-1.568,0.387-2.299,0.559s-1.225,0.287-1.482,0.344c-0.43,0.229-0.831,0.438-1.203,0.623
		c-0.373,0.187-0.788,0.279-1.246,0.279c-0.659,0-1.382-0.164-2.17-0.494c-0.788-0.329-1.504-0.759-2.148-1.289
		c-0.645-0.529-1.16-1.152-1.547-1.869C65.967,45.304,65.874,44.545,66.074,43.742z M67.105,43.098c0.43,0,0.78,0.18,1.053,0.537
		c0.272,0.358,0.58,0.752,0.924,1.182s0.78,0.816,1.311,1.16c0.53,0.344,1.296,0.516,2.299,0.516h0.902
		c0.258-0.258,0.465-0.587,0.623-0.988c0.157-0.4,0.272-0.809,0.344-1.225c0.071-0.415,0.107-0.838,0.107-1.268s0-0.83,0-1.203
		c0-0.4-0.043-0.823-0.129-1.268c-0.086-0.443-0.229-0.852-0.43-1.225c-0.201-0.372-0.48-0.673-0.838-0.902
		c-0.358-0.229-0.781-0.344-1.268-0.344c-0.573,0-1.167,0.179-1.783,0.537c-0.616,0.358-1.182,0.81-1.697,1.354
		c-0.516,0.545-0.974,1.117-1.375,1.719c-0.401,0.602-0.688,1.146-0.859,1.633c0.143-0.114,0.279-0.179,0.408-0.193
		C66.826,43.105,66.962,43.098,67.105,43.098z"/>
	<path fill="#111111" d="M84.98,48.598c0.086-0.716,0.2-1.396,0.344-2.041c0.143-0.645,0.301-1.281,0.473-1.912
		c0.172-0.63,0.365-1.281,0.58-1.955c0.215-0.673,0.451-1.439,0.709-2.299v-0.215c-1.146,0.659-1.955,0.988-2.428,0.988
		s-0.716-0.172-0.73-0.516c-0.014-0.344,0.144-0.802,0.473-1.375c0.329-0.573,0.73-1.103,1.203-1.59
		c0.473-0.487,0.959-0.874,1.461-1.16c0.501-0.286,0.895-0.329,1.182-0.129c0.344,0,0.623,0.058,0.838,0.172
		c0.215,0.115,0.451,0.287,0.709,0.516c0.658-0.516,1.274-0.931,1.848-1.246c0.572-0.315,1.26-0.473,2.062-0.473
		c1.26,0,2.213,0.287,2.857,0.859c0.645,0.573,1.109,1.49,1.396,2.75c0.486-0.487,0.931-0.938,1.332-1.354
		c0.4-0.415,0.838-0.773,1.311-1.074s0.98-0.53,1.525-0.688c0.544-0.157,1.16-0.236,1.848-0.236c0.572,0,1.131,0.215,1.676,0.645
		c0.544,0.43,0.931,0.902,1.16,1.418c0,0.115,0,0.373,0,0.773c0,0.401,0,0.674,0,0.816c0,0.975-0.115,1.912-0.344,2.814
		c-0.229,0.902-0.344,1.826-0.344,2.771c0,0.401,0.05,0.81,0.15,1.225c0.1,0.416,0.408,0.623,0.924,0.623
		c0.688,0,1.311-0.143,1.869-0.43c0.559-0.286,1.074-0.637,1.547-1.053c0.473-0.415,0.902-0.866,1.289-1.354
		c0.387-0.486,0.744-0.938,1.074-1.354c0.329-0.415,0.637-0.766,0.924-1.053c0.286-0.286,0.572-0.43,0.859-0.43
		c0.2,0,0.422,0.079,0.666,0.236c0.243,0.158,0.365,0.352,0.365,0.58c0,0.029-0.008,0.072-0.021,0.129
		c-0.015,0.058-0.021,0.101-0.021,0.129c-0.287,0.889-0.702,1.733-1.246,2.535c-0.545,0.803-1.175,1.512-1.891,2.127
		c-0.717,0.616-1.512,1.104-2.385,1.461c-0.874,0.358-1.798,0.537-2.771,0.537c-0.917,0-1.69-0.121-2.32-0.365
		c-0.631-0.243-1.117-0.809-1.461-1.697c0-0.086-0.008-0.279-0.021-0.58c-0.015-0.301-0.021-0.479-0.021-0.537
		c0-1.088,0.107-2.134,0.322-3.137c0.215-1.002,0.322-2.02,0.322-3.051c0-0.086-0.008-0.271-0.021-0.559
		c-0.015-0.286-0.021-0.473-0.021-0.559c-0.115-0.143-0.294-0.215-0.537-0.215c-0.244,0-0.466,0-0.666,0
		c-0.602,0-1.175,0.215-1.719,0.645c-0.545,0.43-1.046,0.975-1.504,1.633c-0.459,0.659-0.867,1.396-1.225,2.213
		c-0.358,0.816-0.666,1.633-0.924,2.449s-0.466,1.576-0.623,2.277c-0.158,0.702-0.251,1.282-0.279,1.74l-0.473,0.43H94.82
		c-0.258,0-0.395-0.136-0.408-0.408c-0.015-0.271-0.021-0.479-0.021-0.623c0-0.688,0.05-1.382,0.15-2.084
		c0.1-0.701,0.215-1.403,0.344-2.105c0.129-0.701,0.25-1.41,0.365-2.127c0.114-0.716,0.186-1.418,0.215-2.105
		c-0.029-0.229-0.058-0.479-0.086-0.752c-0.029-0.272-0.086-0.522-0.172-0.752c-0.086-0.229-0.215-0.422-0.387-0.58
		c-0.172-0.157-0.416-0.236-0.73-0.236c-0.459,0-0.902,0.086-1.332,0.258s-0.824,0.394-1.182,0.666
		c-0.358,0.272-0.674,0.602-0.945,0.988c-0.272,0.387-0.466,0.81-0.58,1.268l-2.578,8.336l-0.387,0.43
		c-0.344,0.028-0.559,0.043-0.645,0.043c-0.315,0-0.638-0.036-0.967-0.107c-0.33-0.071-0.494-0.336-0.494-0.795V48.598z"/>
</g>
</svg>
