<?xml version="1.0" encoding="utf-8"?>
<!-- Generator: Adobe Illustrator 14.0.0, SVG Export Plug-In . SVG Version: 6.00 Build 43363)  -->
<!DOCTYPE svg PUBLIC "-//W3C//DTD SVG 1.0//EN" "http://www.w3.org/TR/2001/REC-SVG-20010904/DTD/svg10.dtd">
<svg version="1.0" id="Layer_2" xmlns="http://www.w3.org/2000/svg" xmlns:xlink="http://www.w3.org/1999/xlink" x="0px" y="0px"
	 width="95.166px" height="120px" viewBox="-1.5 0 95.166 120" enable-background="new -1.5 0 95.166 120" xml:space="preserve">
<g>
	<rect x="-1.375" y="0.021" fill="#EEEEEE" width="94.999" height="120"/>
	<rect x="11.709" y="44.271" width="69.999" height="2"/>
	<g>
		<rect x="42.959" y="34.271" width="38.749" height="2"/>
		<rect x="42.959" y="24.271" width="38.749" height="2"/>
		<rect x="42.959" y="14.271" width="38.749" height="2"/>
	</g>
	<rect x="11.709" y="53.771" width="69.999" height="2"/>
	<rect x="11.709" y="63.771" width="69.999" height="2"/>
	<rect x="11.709" y="73.771" width="69.999" height="2"/>
	<rect x="11.709" y="83.771" width="69.999" height="2"/>
	<rect x="11.709" y="93.771" width="69.999" height="2"/>
	<rect x="11.709" y="103.771" width="69.999" height="2"/>
	<rect x="12.209" y="13.021" fill="#7FFFD4" stroke="#7FEBD4" width="23" height="22"/>
	<rect x="-1.458" y="0.021" width="3" height="120"/>
	<rect x="-1.375" y="-0.021" width="94.999" height="3"/>
	<rect x="90.583" y="-0.011" width="3" height="120"/>
	<rect x="-1.376" y="116.959" width="95" height="3"/>
</g>
</svg>
